<svg xmlns="http://www.w3.org/2000/svg"
     xmlns:xlink="http://www.w3.org/1999/xlink" viewBox="0 0 104 44.27">
  <defs>
    <style>
      .cls-1{fill:url(#linear-gradient);filter:url(#luminosity-invert);}.cls-2{fill:url(#linear-gradient-2);}.cls-3{fill:url(#linear-gradient-3);}.cls-4{fill:url(#linear-gradient-4);}.cls-5{fill:url(#linear-gradient-5);}.cls-6{fill:url(#linear-gradient-6);}.cls-36,.cls-7{fill:#fff;}.cls-7{filter:url(#luminosity-invert-noclip);}.cls-8{isolation:isolate;}.cls-9{fill:#4d4d4d;}.cls-10,.cls-35{fill:#af0000;}.cls-11{fill:url(#radial-gradient);}.cls-12{mask:url(#mask);}.cls-13{fill:#fdd910;opacity:0.2;}.cls-14{mask:url(#mask-2);}.cls-15,.cls-25{fill:#a10200;}.cls-15,.cls-18{opacity:0.8;}.cls-16{mask:url(#mask-3);}.cls-17,.cls-25{mix-blend-mode:multiply;}.cls-18{fill:#d42400;}.cls-19{mask:url(#mask-4);}.cls-20{opacity:0.6;}.cls-20,.cls-23,.cls-27{mix-blend-mode:screen;}.cls-21,.cls-23{fill:#fd3b00;}.cls-22{mask:url(#mask-5);}.cls-24{mask:url(#mask-6);}.cls-26{mask:url(#mask-7);}.cls-28,.cls-30,.cls-31{opacity:0.45;}.cls-28{fill:url(#linear-gradient-7);}.cls-29{mask:url(#mask-8);}.cls-30{fill:url(#linear-gradient-8);}.cls-31{fill:url(#linear-gradient-9);}.cls-32{fill:#ffc800;}.cls-33{fill:#ffdc00;}.cls-34{fill:#ffb400;}.cls-35{opacity:0.3;}.cls-37{filter:url(#luminosity-noclip);}
    </style>
    <linearGradient id="linear-gradient" x1="15.97" y1="30.17" x2="15.97"
                    y2="1.59" gradientUnits="userSpaceOnUse">
      <stop offset="0" stop-color="#fff"/>
      <stop offset="1"/>
    </linearGradient>
    <linearGradient id="linear-gradient-2" x1="773.26" y1="26.74" x2="764.12"
                    y2="1.64" gradientTransform="matrix(-1, 0, 0, 1, 776, 0)"
                    gradientUnits="userSpaceOnUse">
      <stop offset="0"/>
      <stop offset="0.12" stop-color="#040404"/>
      <stop offset="0.25" stop-color="#101010"/>
      <stop offset="0.37" stop-color="#252525"/>
      <stop offset="0.5" stop-color="#414141"/>
      <stop offset="0.63" stop-color="#666"/>
      <stop offset="0.76" stop-color="#939393"/>
      <stop offset="0.88" stop-color="#c8c8c8"/>
      <stop offset="1" stop-color="#fff"/>
    </linearGradient>
    <linearGradient id="linear-gradient-3" x1="773.04" y1="26.88" x2="773.04"
                    y2="8.33" gradientTransform="matrix(-1, 0, 0, 1, 776, 0)"
                    gradientUnits="userSpaceOnUse">
      <stop offset="0"/>
      <stop offset="1" stop-color="#fff"/>
    </linearGradient>
    <linearGradient id="linear-gradient-4" x1="758.53" y1="29.92" x2="758.53"
                    y2="8.49" xlink:href="#linear-gradient-3"/>
    <linearGradient id="linear-gradient-5" x1="-1300.1" y1="12.98"
                    x2="-1301.91" y2="8.31"
                    gradientTransform="translate(1305.33)"
                    xlink:href="#linear-gradient-3"/>
    <linearGradient id="linear-gradient-6" x1="757.63" y1="13.96" x2="755.49"
                    y2="8.45" xlink:href="#linear-gradient-3"/>
    <radialGradient id="radial-gradient" cx="13.07" cy="22.7" r="21.03"
                    gradientTransform="translate(0.4 -0.08) scale(0.99 1)"
                    gradientUnits="userSpaceOnUse">
      <stop offset="0.05" stop-color="#efac00"/>
      <stop offset="0.17" stop-color="#eb9100"/>
      <stop offset="0.4" stop-color="#e15600"/>
      <stop offset="0.63" stop-color="#c82400"/>
      <stop offset="0.72" stop-color="#b91200"/>
      <stop offset="0.81" stop-color="#ae0500"/>
      <stop offset="0.9" stop-color="#a00"/>
    </radialGradient>
    <filter id="luminosity-invert" filterUnits="userSpaceOnUse"
            color-interpolation-filters="sRGB">
      <feColorMatrix values="-1 0 0 0 1 0 -1 0 0 1 0 0 -1 0 1 0 0 0 1 0"/>
    </filter>
    <mask id="mask" x="9.66" y="1.59" width="12.62" height="28.58"
          maskUnits="userSpaceOnUse">
      <rect class="cls-1" x="9.66" y="1.59" width="12.62" height="28.58"/>
    </mask>
    <mask id="mask-2" x="1.11" y="0.84" width="11.76" height="28.5"
          maskUnits="userSpaceOnUse">
      <rect class="cls-2" x="1.11" y="0.84" width="11.76" height="28.5"/>
    </mask>
    <mask id="mask-3" x="0.89" y="8.33" width="4.14" height="18.55"
          maskUnits="userSpaceOnUse">
      <rect class="cls-3" x="0.89" y="8.33" width="4.14" height="18.55"/>
    </mask>
    <mask id="mask-4" x="12.74" y="8.4" width="9.45" height="21.24"
          maskUnits="userSpaceOnUse">
      <rect class="cls-4" x="12.74" y="8.4" width="9.45" height="21.24"/>
    </mask>
    <mask id="mask-5" x="2.41" y="8.44" width="3.88" height="4.56"
          maskUnits="userSpaceOnUse">
      <rect class="cls-5" x="2.41" y="8.44" width="3.88" height="4.56"/>
    </mask>
    <mask id="mask-6" x="17.54" y="8.44" width="3.74" height="5.71"
          maskUnits="userSpaceOnUse">
      <rect class="cls-6" x="17.54" y="8.44" width="3.74" height="5.71"/>
    </mask>
    <filter id="luminosity-invert-noclip" x="3.91" y="17.82" width="16.21"
            height="9.96" filterUnits="userSpaceOnUse"
            color-interpolation-filters="sRGB">
      <feColorMatrix values="-1 0 0 0 1 0 -1 0 0 1 0 0 -1 0 1 0 0 0 1 0"
                     result="invert"/>
      <feFlood flood-color="#fff" result="bg"/>
      <feBlend in="invert" in2="bg"/>
    </filter>
    <mask id="mask-7" x="3.91" y="17.82" width="16.21" height="9.96"
          maskUnits="userSpaceOnUse">
      <path class="cls-7"
            d="M18.37,20.12A6.67,6.67,0,0,1,5,20.12H3.91c0-3.09,16.21-3.05,16.21,0Z"/>
    </mask>
    <linearGradient id="linear-gradient-7" x1="11.7" y1="27.78" x2="11.7"
                    y2="19.95" gradientUnits="userSpaceOnUse">
      <stop offset="0" stop-color="#fff"/>
      <stop offset="0.11" stop-color="#fafafa"/>
      <stop offset="0.23" stop-color="#ececec"/>
      <stop offset="0.36" stop-color="#d4d4d4"/>
      <stop offset="0.5" stop-color="#b3b3b3"/>
      <stop offset="0.65" stop-color="#898989"/>
      <stop offset="0.79" stop-color="#555"/>
      <stop offset="0.94" stop-color="#191919"/>
      <stop offset="1"/>
    </linearGradient>
    <filter id="luminosity-noclip" x="6.57" y="15.98" width="10.22"
            height="4.27" filterUnits="userSpaceOnUse"
            color-interpolation-filters="sRGB">
      <feFlood flood-color="#fff" result="bg"/>
      <feBlend in="SourceGraphic" in2="bg"/>
    </filter>
    <mask id="mask-8" x="6.57" y="15.98" width="10.22" height="4.27"
          maskUnits="userSpaceOnUse">
      <g class="cls-37">
        <path
        d="M8.14,20.07c-.77,0-1.4-.88-1.4-2s.63-2,1.4-2,1.39.88,1.39,2S8.91,20.07,8.14,20.07Z"/>
        <path
        d="M15.23,20.07c-.77,0-1.39-.88-1.39-2s.62-2,1.39-2,1.4.88,1.4,2S16,20.07,15.23,20.07Z"/>
      </g>
    </mask>
    <linearGradient id="linear-gradient-8" x1="1108.68" y1="-441.78"
                    x2="1108.68" y2="-446.05"
                    gradientTransform="translate(1116.82 -425.8) rotate(180)"
                    xlink:href="#linear-gradient-7"/>
    <linearGradient id="linear-gradient-9" x1="1101.59" y1="-441.78"
                    x2="1101.59" y2="-446.05"
                    gradientTransform="translate(1116.82 -425.8) rotate(180)"
                    xlink:href="#linear-gradient-7"/>
  </defs>
  <title>vpn_premium</title>
  <g class="cls-8">
    <g id="Layer_2" data-name="Layer 2">
      <g id="Layer_1-2" data-name="Layer 1">
        <path class="cls-9"
              d="M66,18.85c.07-.58.32-5.21.58-7A2.25,2.25,0,0,1,67.9,10a2,2,0,0,1,2.17.38,1.77,1.77,0,0,1,.45,1.23,4.61,4.61,0,0,1-.13,1.61c-.19,1.15-1.22,5.6-1.54,6.69a2.38,2.38,0,0,1-.7,1.23,1.17,1.17,0,0,1-1.28.12c-.64-.25-.76-.9-.83-1.54a2.37,2.37,0,0,1,0-.84Zm-1.21,5.8a2.1,2.1,0,0,1,1-2.13,2,2,0,0,1,2.55.52,1.94,1.94,0,0,1,.07,2.38,1.86,1.86,0,0,1-1.15.64,1.45,1.45,0,0,1-.71.13,2,2,0,0,1-1.75-1.54Z"/>
        <path class="cls-9"
              d="M54.77,24.65a3,3,0,0,1-1.08-2.45,2.93,2.93,0,0,1,1.15-2.32,4,4,0,0,1,2.75-.64c1.08,0,1.47,0,2.49-.07l.77-.06v-.06a1.85,1.85,0,0,0-.07-.58c-.06-.45-1-1.1-2.11-1a3.8,3.8,0,0,0-1.28.58c-1.85,1-2.49-1-1.91-1.74A3.3,3.3,0,0,1,58,15.12a7.81,7.81,0,0,1,3,.32,4.32,4.32,0,0,1,2.37,1.42,3.91,3.91,0,0,1,.57,2.83c-.12,1.09-.44,2.19-.64,3.28a14.53,14.53,0,0,0-.06,1.61A2.18,2.18,0,0,1,63,26a1.43,1.43,0,0,1-2,.29,1.33,1.33,0,0,1-.29-.29c-.19-.32-.39-.64-.58-1a5.79,5.79,0,0,1-3.19.64A5.34,5.34,0,0,1,54.77,24.65Zm2-2.39a1.07,1.07,0,0,0,1,1.1,2.22,2.22,0,0,0,1.86-.45,3.16,3.16,0,0,0,.76-1.68c-.76.07-2,.07-2.36.07S56.88,21.56,56.82,22.26Z"/>
        <path class="cls-9"
              d="M49,14.54A11.42,11.42,0,0,1,48.89,13a1.57,1.57,0,0,1,1.41-1.54A1.64,1.64,0,0,1,52,12.74c.07.38.07,1,.13,1.54,0,0,.77,9.27.77,9.66a1.74,1.74,0,0,1-1.41,1.93c-1.41.06-1.66-1-1.79-1.67Z"/>
        <path class="cls-9"
              d="M47.87,21.23a5.36,5.36,0,0,1-2.56,4,5.56,5.56,0,0,1-5-.07,5,5,0,0,1-1.92-1.8,4.74,4.74,0,0,1-.64-2.9,5.63,5.63,0,0,1,2.17-4.38,5.59,5.59,0,0,1,5-.45A4.86,4.86,0,0,1,47,17.24a4.66,4.66,0,0,1,.9,2.77c0,.58-.13,1.42-.07,1.22Zm-3-.45a3.8,3.8,0,0,0-.32-2.25,2,2,0,0,0-2.18-.71,2.64,2.64,0,0,0-1.47,2,3.81,3.81,0,0,0,.32,2.77,1.92,1.92,0,0,0,2.7.3s0,0,0-.05a3.87,3.87,0,0,0,1-2.38.45.45,0,0,0-.06.32Z"/>
        <path class="cls-9"
              d="M35,15.76a4.09,4.09,0,0,1,1.22,2.38c.19,1.1.51,4.51.57,5a2.36,2.36,0,0,1-.19,1.48,1.63,1.63,0,0,1-2,.71c-.9-.39-1-1.55-1-2.32-.13-1.16-.2-2.26-.32-3.35-.13-.9-.32-2.06-1.41-2A1.92,1.92,0,0,0,30.24,19a5.19,5.19,0,0,0-.07,1.42c.07.58.26,2.64.32,3.15a7.25,7.25,0,0,1,.07,1.23A1.63,1.63,0,0,1,29,26.19a1.49,1.49,0,0,1-1-.38,2.73,2.73,0,0,1-.57-1.23c-.2-1.09-.9-9.13-1.09-10.23a3.1,3.1,0,0,1,.08-1.54,1.52,1.52,0,0,1,.76-.78A1.61,1.61,0,0,1,28.4,12a1.47,1.47,0,0,1,.89,1,32.64,32.64,0,0,1,.45,3.42,3.32,3.32,0,0,1,.7-.65A3.9,3.9,0,0,1,35,15.76Z"/>
        <path class="cls-9"
              d="M82.61,14a1.06,1.06,0,0,1,0,.31L78.82,25.62c-.08.28-.47.37-1,.37h-.94c-.51,0-.89-.09-1-.37L72.18,14.35a1.16,1.16,0,0,1-.07-.31c0-.25.33-.39,1.06-.39h.57a.93.93,0,0,1,1,.51l2.35,7.59.19.64h.07l.19-.64L80,14.16a1,1,0,0,1,1-.51h.53C82.3,13.64,82.61,13.78,82.61,14Z"/>
        <path class="cls-9"
              d="M92.46,17.52a3.78,3.78,0,0,1-4,3.86H86.65v4.05c0,.36-.32.56-1,.56H85c-.73,0-1-.2-1-.56v-11a.6.6,0,0,1,.49-.7h3.86C89.87,13.68,92.46,14.14,92.46,17.52ZM86.65,16V19H88.2a1.38,1.38,0,0,0,1.49-1.24,1.31,1.31,0,0,0,0-.28A1.38,1.38,0,0,0,88.48,16a1,1,0,0,0-.3,0H86.65Z"/>
        <path class="cls-9"
              d="M104,14.21V25.43c0,.36-.31.56-1,.56h-.64a1.2,1.2,0,0,1-1.15-.48l-4.66-7.19v7.09c0,.36-.31.56-1,.56H95c-.73,0-1-.2-1-.56V14.21c0-.37.31-.56,1-.56h.75a1.2,1.2,0,0,1,1.15.47L101,20.5l.47.72v-7c0-.37.31-.56,1-.56H103C103.69,13.64,104,13.84,104,14.21Z"/>
        <ellipse class="cls-10" cx="11.7" cy="16.47" rx="10.4" ry="4.33"/>
        <path id="Body" class="cls-11"
              d="M21.66,19.45c.13-2-1.18-5.21-1.72-6.88s1.17-3.72,1.17-3.72-.53,0-1.81,1.16A4.09,4.09,0,0,0,18,12.73c-1.52-3.6-4.6-5.89-5.74-7.44a4,4,0,0,1-.33-3.56C10,4.33,8.58,6.57,8.23,9.53s-2.36,2.74-2.36,2.74c-.3-2.79-3.42-3.5-3.42-3.5C3.1,9,4.22,12.2,3,14.53a10.8,10.8,0,0,0-1.28,4.92c0,5.53,3.48,10,10,10A9.74,9.74,0,0,0,21.66,19.45Z"/>
        <g id="Shades">
          <g class="cls-12">
            <path id="RH_large_shade" data-name="RH large shade" class="cls-13"
                  d="M19.94,12.57c-.54-1.68,1.17-3.72,1.17-3.72s-.53,0-1.81,1.16A4.09,4.09,0,0,0,18,12.73c-1.52-3.6-4.6-5.89-5.74-7.44a3.91,3.91,0,0,1-.34-3.54c-.58,1.13-1.84,3.1,2.29,7.68,5.08,5,6.93,8.49,5.91,13.49-.61,3-2.3,4-4.59,5.84l-.09,0a9.75,9.75,0,0,0,6.23-9.35C21.79,17.47,20.48,14.24,19.94,12.57Z"/>
          </g>
          <g class="cls-14">
            <path id="LH_large_shade" data-name="LH large shade" class="cls-15"
                  d="M1.74,19.45a10.53,10.53,0,0,0,2,6.45c-1-2.29-1.84-6-.51-8.68,2.49-5,6.3-5,6.18-9a8.94,8.94,0,0,1,2.48-6.43v0A14.82,14.82,0,0,0,8.67,8.67a4.36,4.36,0,0,1-2.8,3.6c-.3-2.79-3.42-3.5-3.42-3.5C3.1,9,4.22,12.2,3,14.53A10.8,10.8,0,0,0,1.74,19.45Z"/>
          </g>
          <g class="cls-16">
            <g class="cls-17">
              <path class="cls-18"
                    d="M4.05,14c.74-2.48-.84-5-1.6-5.23C3.11,9,4.22,12.2,3,14.53a10.8,10.8,0,0,0-1.28,4.92,10.59,10.59,0,0,0,1.83,6.19C.35,18.89,3.3,16.5,4.05,14Z"/>
            </g>
          </g>
          <g class="cls-19">
            <g class="cls-20">
              <path class="cls-21"
                    d="M19.94,12.57c-.54-1.68,1.17-3.72,1.17-3.72-1.14,1.57-1.64,2.82-.61,7C22.26,22.11,20,26.7,15,29a9.75,9.75,0,0,0,6.65-9.5C21.79,17.47,20.48,14.24,19.94,12.57Z"/>
            </g>
          </g>
          <g class="cls-22">
            <path id="LH_ear" data-name="LH ear" class="cls-23"
                  d="M2.45,8.78a4.37,4.37,0,0,1,2.86,3.75,2.29,2.29,0,0,0,.56-.26C5.57,9.48,2.45,8.77,2.45,8.78Z"/>
          </g>
          <g class="cls-24">
            <path id="RH_ear" data-name="RH ear" class="cls-25"
                  d="M18.34,13.35c.34-.14-.05-2.57,2.77-4.5,0,0-.53,0-1.81,1.16A4.09,4.09,0,0,0,18,12.73S18.28,13.26,18.34,13.35Z"/>
          </g>
        </g>
        <g id="Smile">
          <g id="Mouth">
            <g class="cls-26">
              <g class="cls-27">
                <path class="cls-28"
                      d="M11.7,27.78a7.51,7.51,0,0,1-5.38-2.27,7.6,7.6,0,0,1-2.23-5.39V20H5.48v.17a6.32,6.32,0,0,0,6.22,6.25,6.31,6.31,0,0,0,6.21-6.25V20h1.4v.17a7.6,7.6,0,0,1-2.23,5.39A7.51,7.51,0,0,1,11.7,27.78Z"/>
              </g>
            </g>
            <path id="Mouth-2" data-name="Mouth"
                  d="M18.08,20.12a6.5,6.5,0,0,1-6.38,6.42,6.49,6.49,0,0,1-6.38-6.42H4.26a7.5,7.5,0,0,0,7.44,7.49,7.5,7.5,0,0,0,7.44-7.49Z"/>
          </g>
          <g id="Eyes">
            <g class="cls-29">
              <g id="Glow">
                <g class="cls-27">
                  <path class="cls-30"
                        d="M8.14,20.25c-.87,0-1.57-1-1.57-2.14S7.27,16,8.14,16s1.56.95,1.56,2.13S9,20.25,8.14,20.25Z"/>
                </g>
                <g class="cls-27">
                  <path class="cls-31"
                        d="M15.23,20.25c-.86,0-1.56-1-1.56-2.14S14.37,16,15.23,16s1.57.95,1.57,2.13S16.09,20.25,15.23,20.25Z"/>
                </g>
              </g>
            </g>
            <g id="Eyes-2" data-name="Eyes">
              <path
              d="M15.23,16.15c.77,0,1.4.88,1.4,2s-.63,2-1.4,2-1.39-.88-1.39-2S14.46,16.15,15.23,16.15Z"/>
              <path
              d="M8.14,16.15c.77,0,1.39.88,1.39,2s-.62,2-1.39,2-1.4-.88-1.4-2S7.37,16.15,8.14,16.15Z"/>
            </g>
          </g>
        </g>
        <path class="cls-32"
              d="M17.33,9.1C14.73,8.23,11.7.87,11.7.87V12.13h0c5.74,0,10.39,1.94,10.39,4.34l.44-9.54S19.93,10,17.33,9.1Z"/>
        <circle class="cls-33" cx="11.7" cy="1.3" r="1.3"/>
        <circle class="cls-33" cx="1.08" cy="7.15" r="1.08"/>
        <circle class="cls-34" cx="22.32" cy="7.15" r="1.08"/>
        <path class="cls-33"
              d="M11.7,12.13h0V.87s-3,7.36-5.63,8.23S.87,6.93.87,6.93l.43,9.54C1.3,14.07,6,12.13,11.7,12.13Z"/>
        <path class="cls-35"
              d="M11.7,13c4,0,7.41.93,9.17,2.29-.13-.39-.26-.78-.39-1.14-1.84-1.21-5.08-2-8.78-2a17.75,17.75,0,0,0-8.43,1.8,4,4,0,0,1-.25.6c-.11.21-.21.42-.31.63C4.52,13.87,7.86,13,11.7,13Z"/>
        <path class="cls-34"
              d="M19.5,13.6c1.62.76,2.6,1.77,2.6,2.87l.44-9.54Z"/>
        <rect class="cls-32" x="22" y="30.27" width="60" height="14" rx="7"
              ry="7"/>
        <path class="cls-36"
              d="M34.82,34.53a1.93,1.93,0,0,1,.89.74,2.23,2.23,0,0,1,0,2.27,2,2,0,0,1-.89.75,3.29,3.29,0,0,1-1.35.25H32.11v1.73H31v-6h2.47A3.29,3.29,0,0,1,34.82,34.53Zm-.3,2.76a1.21,1.21,0,0,0,0-1.76,1.68,1.68,0,0,0-1.1-.31H32.11V37.6h1.31A1.68,1.68,0,0,0,34.52,37.29Z"/>
        <path class="cls-36"
              d="M41.06,40.27l-1.23-1.75H38.25v1.74H37.13v-6H39.6a3.34,3.34,0,0,1,1.36.25,2,2,0,0,1,.89.74,2.11,2.11,0,0,1,.31,1.14,2,2,0,0,1-.33,1.16,2,2,0,0,1-.95.73l1.38,2Zm-.4-4.74a1.69,1.69,0,0,0-1.11-.31h-1.3v2.39h1.3a1.75,1.75,0,0,0,1.11-.31,1.1,1.1,0,0,0,.37-.89A1.07,1.07,0,0,0,40.66,35.53Z"/>
        <path class="cls-36"
              d="M47.9,39.34v.93H43.4v-6h4.38v.93H44.51v1.56h2.9v.92h-2.9v1.65Z"/>
        <path class="cls-36"
              d="M54.65,40.27v-4l-2,3.29h-.5l-2-3.24v3.92H49.14v-6h.91l2.39,4,2.34-4h.91v6Z"/>
        <path class="cls-36" d="M57.32,34.28h1.11v6H57.32Z"/>
        <path class="cls-36"
              d="M60.7,39.66a2.68,2.68,0,0,1-.7-2V34.28h1.12v3.34c0,1.17.51,1.76,1.52,1.76s1.52-.59,1.52-1.76V34.28h1.1v3.38a2.71,2.71,0,0,1-.69,2,3,3,0,0,1-3.87,0Z"/>
        <path class="cls-36"
              d="M72.32,40.27v-4l-2,3.29h-.49l-2-3.24v3.92H66.81v-6h.92l2.38,4,2.34-4h.92v6Z"/>
      </g>
    </g>
  </g>
</svg>
