<?xml version="1.0" encoding="utf-8"?>
<!-- Generator: Adobe Illustrator 17.1.0, SVG Export Plug-In . SVG Version: 6.00 Build 0)  -->
<!DOCTYPE svg PUBLIC "-//W3C//DTD SVG 1.1//EN" "http://www.w3.org/Graphics/SVG/1.1/DTD/svg11.dtd">
<svg version="1.1" id="Layer_1" xmlns="http://www.w3.org/2000/svg" xmlns:xlink="http://www.w3.org/1999/xlink" x="0px" y="0px"
	 viewBox="-8.4 -163.7 517.1 137.5" enable-background="new -8.4 -163.7 517.1 137.5" xml:space="preserve">
<g>
	<title>Hola-logo</title>
	<path fill="#FFFFFF" d="M312.3-75.3c0.3-2.9,1.6-26.4,2.9-35.2c0.2-4.2,2.7-8,6.5-9.8c3.8-1.5,8.1-0.8,11.1,2
		c1.6,1.7,2.4,3.9,2.3,6.2c0.3,2.7,0,5.5-0.7,8.1c-1,5.9-6.2,28.3-7.8,33.9c-0.5,2.4-1.8,4.5-3.6,6.2c-1.8,1.5-4.4,1.8-6.5,0.7
		c-3.3-1.3-3.9-4.6-4.2-7.8C312-72.5,312-73.9,312.3-75.3C312.3-75.3,312.3-75.3,312.3-75.3z M306.1-46c-0.7-4.2,1.2-8.5,4.9-10.7
		c4.4-2.5,9.9-1.3,13,2.6c2.9,3.5,3,8.4,0.3,12c-1.5,1.8-3.6,2.9-5.9,3.3c-1.1,0.5-2.4,0.7-3.6,0.7c-4.4-0.4-8-3.5-8.9-7.8l0,0
		H306.1z"/>
	<path fill="#FFFFFF" d="M254.9-46c-3.7-3-5.7-7.6-5.5-12.4c0-4.6,2.2-8.9,5.9-11.7c4.2-3.3,8.5-3.3,14-3.3s7.5,0,12.7-0.3l3.9-0.3
		v-0.3c0.1-1-0.1-2-0.3-2.9c-0.3-2.3-5.2-5.5-10.7-4.9c-2.3,0.6-4.5,1.6-6.5,2.9c-9.4,4.9-12.7-5.2-9.8-8.8
		c3.1-3.8,7.8-6.1,12.7-6.2c5.2-0.4,10.4,0.1,15.3,1.6c4.7,1,8.9,3.5,12,7.2c3.3,3.9,3.3,9.4,2.9,14.3c-0.7,5.5-2.3,11.1-3.3,16.6
		c-0.3,2.7-0.4,5.4-0.3,8.1c0.5,2.4,0.2,5-1,7.2c-2.4,3.2-7,3.9-10.3,1.5c-0.6-0.4-1-0.9-1.5-1.5c-1-1.6-2-3.3-2.9-5.2
		c-5,2.6-10.7,3.7-16.3,3.3C261.9-41.9,258.1-43.6,254.9-46z M265.3-58.1c-0.1,3,2.3,5.4,5.2,5.5c3.3,0.7,6.8-0.1,9.4-2.3
		c2.1-2.4,3.5-5.3,3.9-8.5c-3.9,0.3-10.4,0.3-12,0.3C269.9-62.3,265.6-61.7,265.3-58.1L265.3-58.1z"/>
	<path fill="#FFFFFF" d="M225.2-97.2c-0.3-2.6-0.4-5.2-0.3-7.8c0-4.1,3.1-7.4,7.2-7.8c4-0.2,7.6,2.6,8.5,6.5c0.3,2,0.3,5.2,0.7,7.8
		c0,0,3.9,46.9,3.9,48.8c0.6,4.6-2.6,8.9-7.2,9.8c-7.2,0.3-8.5-5.2-9.1-8.5L225.2-97.2z"/>
	<path fill="#FFFFFF" d="M219.7-63.3c-1.6,8.5-5.2,16-13,20.2c-8.1,4-17.7,3.8-25.7-0.3c-4-2.1-7.4-5.3-9.8-9.1
		c-2.6-4.4-3.8-9.5-3.3-14.7c0.1-8.7,4.2-16.8,11.1-22.1c7.2-5.2,17.6-5.2,25.7-2.3c4.3,1.6,8,4.5,10.7,8.1c3,4.1,4.6,9,4.6,14
		C220-66.6,219.4-62.3,219.7-63.3L219.7-63.3L219.7-63.3z M204.4-65.6c0.7-3.9,0.1-7.9-1.6-11.4c-2.6-3.4-7-4.8-11.1-3.6
		c-4,1.9-6.9,5.7-7.5,10.1c-1.3,4.7-0.7,9.7,1.6,14c3.4,4.2,9.5,4.9,13.7,1.5c0,0,0,0,0,0l0.3-0.2c2.9-3.4,4.6-7.6,4.9-12
		C204.4-66.7,204.3-66.1,204.4-65.6L204.4-65.6L204.4-65.6z"/>
	<path fill="#FFFFFF" d="M154.3-91c3.4,3.2,5.5,7.4,6.2,12c1,5.5,2.6,22.8,2.9,25.4c0.5,2.5,0.2,5.2-1,7.5c-2,3.5-6.3,5-10.1,3.6
		c-4.6-2-4.9-7.8-5.2-11.7c-0.7-5.9-1-11.4-1.6-16.9c-0.7-4.6-1.6-10.4-7.2-10.1c-3.9,0.3-7.2,2.9-8.5,6.5c-0.4,2.4-0.6,4.8-0.3,7.2
		c0.3,2.9,1.3,13.4,1.6,16c0.3,2,0.4,4.1,0.3,6.2c-0.6,4-3.8,7-7.8,7.2c-1.9,0.1-3.8-0.6-5.2-2c-1.5-1.8-2.5-3.9-2.9-6.2
		c-1-5.5-4.6-46.2-5.5-51.7c-0.5-2.6-0.4-5.3,0.4-7.8c0.7-1.7,2.1-3.1,3.8-3.9c1.9-0.9,4.2-1,6.2-0.3c2.2,0.8,3.9,2.6,4.6,4.9
		c1.1,5.7,1.8,11.5,2.3,17.3c1-1.2,2.2-2.3,3.6-3.3C138-95.9,148.1-96.5,154.3-91z"/>
	<path fill="#FFFFFF" d="M396.7-99.7c0,0.5-0.1,1.1-0.3,1.6l-19,57c-0.5,1.4-2.4,1.9-4.9,1.9h-4.8c-2.6,0-4.5-0.5-4.9-1.9l-19.1-57
		c-0.2-0.5-0.3-1.1-0.4-1.6c0-1.2,1.7-2,5.4-2h2.9c2.1-0.4,4.3,0.6,5.2,2.6l12,38.4l1,3.3h0.4l1-3.3l12.3-38.4c1-1.9,3.1-3,5.2-2.6
		h2.7C395.1-101.7,396.7-101,396.7-99.7z"/>
	<path fill="#FFFFFF" d="M446.9-82.1c0,17.1-15.4,19.5-20.2,19.5h-9.4v20.5c0,1.9-1.6,2.8-5.3,2.8h-3c-3.7,0-5.3-1-5.3-2.8v-55.8
		c-0.3-1.7,0.8-3.3,2.5-3.6c0.4-0.1,0.8-0.1,1.2,0h18.6C433.7-101.5,446.9-99.2,446.9-82.1z M417.3-89.9v15.5h7.9
		c3.8,0.4,7.2-2.4,7.6-6.3c0-0.5,0-0.9,0-1.4c0.5-3.9-2.3-7.4-6.2-7.8c-0.5-0.1-1-0.1-1.6,0H417.3z"/>
	<path fill="#FFFFFF" d="M505.7-98.8v56.7c0,1.9-1.6,2.8-5.3,2.8h-3.3c-2.3,0.4-4.5-0.6-5.9-2.4L467.5-78v35.8
		c0,1.9-1.6,2.8-5.3,2.8h-2.6c-3.7,0-5.3-1-5.3-2.8v-56.6c0-1.9,1.6-2.8,5.3-2.8h3.8c2.2-0.4,4.5,0.6,5.9,2.4l20.9,32.4l2.4,3.6
		v-35.6c0-1.9,1.6-2.8,5.3-2.8h2.6C504.1-101.7,505.7-100.7,505.7-98.8z"/>
	<g>
		<g>
			
				<radialGradient id="Body_2_" cx="15.351" cy="543.7664" r="134.5234" gradientTransform="matrix(0.9636 0 0 -0.9636 29.6324 455.1884)" gradientUnits="userSpaceOnUse">
				<stop  offset="5.000000e-02" style="stop-color:#EFAC00"/>
				<stop  offset="0.1743" style="stop-color:#EB9100"/>
				<stop  offset="0.4" style="stop-color:#E15600"/>
				<stop  offset="0.63" style="stop-color:#C82400"/>
				<stop  offset="0.7155" style="stop-color:#B91200"/>
				<stop  offset="0.8126" style="stop-color:#AE0500"/>
				<stop  offset="0.9" style="stop-color:#AA0000"/>
			</radialGradient>
			<path id="Body_8_" fill="url(#Body_2_)" d="M92-76.3c0.6-9.5-2.8-25.5-5.7-33.4c-2.8-8.2,2.8-18,2.8-18s-2.8,0.3-8.8,5.7
				c-6,5.4-6.3,13.2-6.3,13.2c-7.6-17.3-22.7-28.7-28.4-36.2c-5.7-7.6-1.6-17.3-1.6-17.3c-11.3,5-17,17-18.9,31.5
				c-1.6,14.5-11,19.8-11,19.8c-1.6-13.5-17-16.7-17-16.7c3.2,0.9,8.8,16.4,2.8,28C-3.8-92.1-6.3-83.9-6.3-76
				c0,26.5,17,48.2,48.8,48.2C71.8-27.5,92-49.5,92-76.3z"/>
			<g id="Shades_8_">
				<defs>
					<filter id="Adobe_OpacityMaskFilter" filterUnits="userSpaceOnUse" x="40.7" y="-162.6" width="51.1" height="131.9">
						
							<feColorMatrix  type="matrix" values="-1 0 0 0 1  0 -1 0 0 1  0 0 -1 0 1  0 0 0 1 0" color-interpolation-filters="sRGB" result="source"/>
					</filter>
				</defs>
				<mask maskUnits="userSpaceOnUse" x="40.7" y="-162.6" width="51.1" height="131.9" id="RH_large_shade_2_">
					<g filter="url(#Adobe_OpacityMaskFilter)">
						<linearGradient id="SVGID_1_" gradientUnits="userSpaceOnUse" x1="63.7381" y1="-24.0357" x2="63.7381" y2="-163.3725">
							<stop  offset="0" style="stop-color:#FFFFFF"/>
							<stop  offset="1" style="stop-color:#000000"/>
						</linearGradient>
						<rect x="32.8" y="-163.4" fill="url(#SVGID_1_)" width="61.9" height="139.3"/>
					</g>
				</mask>
				<path id="RH_large_shade_8_" opacity="0.2" mask="url(#RH_large_shade_2_)" fill="#FDD910" d="M86.1-109.9
					c-2.7-8.2,2.8-18,2.8-18s-2.6,0.2-8.9,5.7c-6.2,5.4-6.4,13.2-6.4,13.2c-7.5-17.5-22.5-28.7-28.2-36.2
					c-4.1-5.4-3.3-12.9-1.6-17.3c-2.9,5.5-9.1,15.1,11.2,37.4c25,24.5,34,41.4,29,65.8c-3,14.4-11.3,19.7-22.5,28.5
					c-0.1,0.1-0.3,0.1-0.4,0.2c18.7-7,30.5-24.8,30.5-45.6C92.3-85.9,88.8-101.7,86.1-109.9z"/>
				<defs>
					<filter id="Adobe_OpacityMaskFilter_1_" filterUnits="userSpaceOnUse" x="-6" y="-162.7" width="49.9" height="117.8">
						<feColorMatrix  type="matrix" values="1 0 0 0 0  0 1 0 0 0  0 0 1 0 0  0 0 0 1 0"/>
					</filter>
				</defs>
				<mask maskUnits="userSpaceOnUse" x="-6" y="-162.7" width="49.9" height="117.8" id="LH_large_shade_2_">
					<g filter="url(#Adobe_OpacityMaskFilter_1_)">
						
							<linearGradient id="SVGID_2_" gradientUnits="userSpaceOnUse" x1="1222.9917" y1="-40.7216" x2="1178.4214" y2="-163.1775" gradientTransform="matrix(-1 0 0 1 1222 0)">
							<stop  offset="0" style="stop-color:#000000"/>
							<stop  offset="0.1231" style="stop-color:#040404"/>
							<stop  offset="0.2483" style="stop-color:#101010"/>
							<stop  offset="0.3745" style="stop-color:#252525"/>
							<stop  offset="0.5016" style="stop-color:#414141"/>
							<stop  offset="0.6293" style="stop-color:#666666"/>
							<stop  offset="0.7575" style="stop-color:#939393"/>
							<stop  offset="0.8836" style="stop-color:#C8C8C8"/>
							<stop  offset="1" style="stop-color:#FFFFFF"/>
						</linearGradient>
						<rect x="-9.1" y="-167" fill="url(#SVGID_2_)" width="57.7" height="138.9"/>
					</g>
				</mask>
				<path id="LH_large_shade_8_" opacity="0.8" mask="url(#LH_large_shade_2_)" fill="#A10200" d="M-6-76.3c0,12,3.4,23,9.9,31.5
					C-1-56-5.1-74.1,1.4-87.2c12.2-24.2,30.9-24.6,30.3-44.1c-0.6-18.7,11.2-30.5,12.2-31.4c0,0,0-0.1,0-0.1
					c-11.3,4.9-17.1,17.1-18.8,31.5c-1.7,14.5-10.8,19.8-10.8,19.8c-1.5-13.6-16.8-17-16.8-17c3.2,1.1,8.7,16.7,2.8,28.1
					C-3.7-92.6-6-84.5-6-76.3z"/>
				<defs>
					<filter id="Adobe_OpacityMaskFilter_2_" filterUnits="userSpaceOnUse" x="-6" y="-128.3" width="12.3" height="82.2">
						<feColorMatrix  type="matrix" values="1 0 0 0 0  0 1 0 0 0  0 0 1 0 0  0 0 0 1 0"/>
					</filter>
				</defs>
				<mask maskUnits="userSpaceOnUse" x="-6" y="-128.3" width="12.3" height="82.2" id="LH_small_shade_1_">
					<g filter="url(#Adobe_OpacityMaskFilter_2_)">
						
							<linearGradient id="SVGID_3_" gradientUnits="userSpaceOnUse" x1="1222.0363" y1="-40.056" x2="1222.0363" y2="-130.4939" gradientTransform="matrix(-1 0 0 1 1222 0)">
							<stop  offset="0" style="stop-color:#000000"/>
							<stop  offset="1" style="stop-color:#FFFFFF"/>
						</linearGradient>
						<rect x="-10.2" y="-130.5" fill="url(#SVGID_3_)" width="20.3" height="90.4"/>
					</g>
				</mask>
				<g id="LH_small_shade_8_" mask="url(#LH_small_shade_1_)">
					<path opacity="0.8" fill="#D42400" d="M5.3-102.8c3.7-12.1-4.1-24.4-7.8-25.5c3.2,1.2,8.7,16.7,2.8,28.1
						c-4,7.6-6.3,15.8-6.3,24c0,11.4,3.1,21.9,9,30.2C-12.9-79,1.6-90.7,5.3-102.8z"/>
				</g>
				<defs>
					<filter id="Adobe_OpacityMaskFilter_3_" filterUnits="userSpaceOnUse" x="59" y="-128" width="32.7" height="98">
						<feColorMatrix  type="matrix" values="1 0 0 0 0  0 1 0 0 0  0 0 1 0 0  0 0 0 1 0"/>
					</filter>
				</defs>
				<mask maskUnits="userSpaceOnUse" x="59" y="-128" width="32.7" height="98" id="RH_small_shade_1_">
					<g filter="url(#Adobe_OpacityMaskFilter_3_)">
						
							<linearGradient id="SVGID_4_" gradientUnits="userSpaceOnUse" x1="1150.9059" y1="-25.2499" x2="1150.9059" y2="-129.748" gradientTransform="matrix(-1 0 0 1 1222 0)">
							<stop  offset="0" style="stop-color:#000000"/>
							<stop  offset="1" style="stop-color:#FFFFFF"/>
						</linearGradient>
						<rect x="47.9" y="-130.2" fill="url(#SVGID_4_)" width="46.3" height="103.5"/>
					</g>
				</mask>
				<g id="RH_small_shade_8_" opacity="0.6" mask="url(#RH_small_shade_1_)">
					<path fill="#FD3B00" d="M86.1-109.9c-2.7-8.2,2.8-18,2.8-18c-5.6,7.6-8,13.7-3,34.1C94.6-63.3,83.4-40.9,59-30
						c19.9-6.5,32.6-24.8,32.6-46.3C92.3-85.9,88.8-101.7,86.1-109.9z"/>
				</g>
				<defs>
					<filter id="Adobe_OpacityMaskFilter_4_" filterUnits="userSpaceOnUse" x="-2.5" y="-128.3" width="16.8" height="18.3">
						<feColorMatrix  type="matrix" values="1 0 0 0 0  0 1 0 0 0  0 0 1 0 0  0 0 0 1 0"/>
					</filter>
				</defs>
				<mask maskUnits="userSpaceOnUse" x="-2.5" y="-128.3" width="16.8" height="18.3" id="LH_ear_2_">
					<g filter="url(#Adobe_OpacityMaskFilter_4_)">
						
							<linearGradient id="SVGID_5_" gradientUnits="userSpaceOnUse" x1="-1294.2637" y1="-107.822" x2="-1303.09" y2="-130.6142" gradientTransform="matrix(1 0 0 1 1305.332 0)">
							<stop  offset="0" style="stop-color:#000000"/>
							<stop  offset="1" style="stop-color:#FFFFFF"/>
						</linearGradient>
						<rect x="-2.7" y="-130" fill="url(#SVGID_5_)" width="19" height="22.2"/>
					</g>
				</mask>
				<path id="LH_ear_8_" mask="url(#LH_ear_2_)" fill="#FD3B00" d="M-2.5-128.3c11.7,3.7,13.7,15.6,14,18.3c1-0.2,2.8-1.3,2.8-1.3
					C12.7-124.9-2.5-128.3-2.5-128.3z"/>
				<defs>
					<filter id="Adobe_OpacityMaskFilter_5_" filterUnits="userSpaceOnUse" x="73.7" y="-128" width="15.3" height="21.9">
						<feColorMatrix  type="matrix" values="1 0 0 0 0  0 1 0 0 0  0 0 1 0 0  0 0 0 1 0"/>
					</filter>
				</defs>
				<mask maskUnits="userSpaceOnUse" x="73.7" y="-128" width="15.3" height="21.9" id="RH_ear_2_">
					<g filter="url(#Adobe_OpacityMaskFilter_5_)">
						
							<linearGradient id="SVGID_6_" gradientUnits="userSpaceOnUse" x1="1146.431" y1="-103.0269" x2="1136.0088" y2="-129.9404" gradientTransform="matrix(-1 0 0 1 1222 0)">
							<stop  offset="0" style="stop-color:#000000"/>
							<stop  offset="1" style="stop-color:#FFFFFF"/>
						</linearGradient>
						<rect x="71.4" y="-130" fill="url(#SVGID_6_)" width="18.3" height="27.9"/>
					</g>
				</mask>
				<path id="RH_ear_8_" mask="url(#RH_ear_2_)" fill="#A10200" d="M75.4-106c1.6-0.7-0.3-12.5,13.6-21.9c0,0-2.6,0.2-8.9,5.7
					c-6.2,5.4-6.4,13.2-6.4,13.2S75.1-106.5,75.4-106z"/>
			</g>
			<g id="Smile_7_">
				<g id="Mouth_12_">
					<defs>
						<filter id="Adobe_OpacityMaskFilter_6_" filterUnits="userSpaceOnUse" x="6.2" y="-73.2" width="73.3" height="36.8">
							
								<feColorMatrix  type="matrix" values="-1 0 0 0 1  0 -1 0 0 1  0 0 -1 0 1  0 0 0 1 0" color-interpolation-filters="sRGB" result="source"/>
							<feFlood  style="flood-color:white;flood-opacity:1" result="back"/>
							<feBlend  in="source" in2="back" mode="normal"/>
						</filter>
					</defs>
					<mask maskUnits="userSpaceOnUse" x="6.2" y="-73.2" width="73.3" height="36.8" id="Glow_2_">
						<g filter="url(#Adobe_OpacityMaskFilter_6_)">
							<path fill="#FFFFFF" d="M75.5-73c-0.2,17.9-14.7,32.4-32.7,32.4c-18,0-32.6-14.5-32.7-32.4l-5.5,0c0-15.1,79.5-14.9,79.5,0
								L75.5-73z"/>
						</g>
					</mask>
					<g id="Glow_16_" mask="url(#Glow_2_)">
						<linearGradient id="SVGID_7_" gradientUnits="userSpaceOnUse" x1="42.8137" y1="-36.361" x2="42.8137" y2="-73.1627">
							<stop  offset="0" style="stop-color:#FFFFFF"/>
							<stop  offset="0.1057" style="stop-color:#FAFAFA"/>
							<stop  offset="0.2294" style="stop-color:#ECECEC"/>
							<stop  offset="0.3621" style="stop-color:#D4D4D4"/>
							<stop  offset="0.5012" style="stop-color:#B3B3B3"/>
							<stop  offset="0.6453" style="stop-color:#898989"/>
							<stop  offset="0.7935" style="stop-color:#555555"/>
							<stop  offset="0.9424" style="stop-color:#191919"/>
							<stop  offset="1" style="stop-color:#000000"/>
						</linearGradient>
						<path opacity="0.45" fill="url(#SVGID_7_)" d="M42.8-36.4C22.6-36.4,6.2-52.8,6.2-73v-0.2h5.5v0.2c0,16.9,14.3,31.2,31.2,31.2
							C59.7-41.9,74-56.1,74-73v-0.2h5.5v0.2C79.5-52.8,63-36.4,42.8-36.4z"/>
					</g>
					<path id="Mouth_13_" d="M74.1-73c0,16.6-14,31.3-31.3,31.3c-17.3,0-31.3-14.7-31.3-31.3H6.3c0,19.9,16.3,36.5,36.5,36.5
						C63-36.5,79.3-53.1,79.3-73H74.1z"/>
				</g>
				<g id="Eyes_12_">
					<defs>
						<filter id="Adobe_OpacityMaskFilter_7_" filterUnits="userSpaceOnUse" x="18.4" y="-92.5" width="48.8" height="19.4">
							<feFlood  style="flood-color:white;flood-opacity:1" result="back"/>
							<feBlend  in="SourceGraphic" in2="back" mode="normal"/>
						</filter>
					</defs>
					<mask maskUnits="userSpaceOnUse" x="18.4" y="-92.5" width="48.8" height="19.4" id="Glow_6_">
						<g filter="url(#Adobe_OpacityMaskFilter_7_)">
							<g>
								<g>
									<ellipse cx="25.3" cy="-82.8" rx="6.8" ry="9.6"/>
								</g>
								<g>
									<ellipse cx="60.1" cy="-82.8" rx="6.8" ry="9.6"/>
								</g>
							</g>
						</g>
					</mask>
					<g id="Glow_15_" mask="url(#Glow_6_)">
						<g>
							
								<linearGradient id="SVGID_8_" gradientUnits="userSpaceOnUse" x1="1537.474" y1="24.2023" x2="1537.474" y2="4.7555" gradientTransform="matrix(-1 0 0 -1 1562.8223 -68.3437)">
								<stop  offset="0" style="stop-color:#FFFFFF"/>
								<stop  offset="0.1057" style="stop-color:#FAFAFA"/>
								<stop  offset="0.2294" style="stop-color:#ECECEC"/>
								<stop  offset="0.3621" style="stop-color:#D4D4D4"/>
								<stop  offset="0.5012" style="stop-color:#B3B3B3"/>
								<stop  offset="0.6453" style="stop-color:#898989"/>
								<stop  offset="0.7935" style="stop-color:#555555"/>
								<stop  offset="0.9424" style="stop-color:#191919"/>
								<stop  offset="1" style="stop-color:#000000"/>
							</linearGradient>
							<path opacity="0.45" fill="url(#SVGID_8_)" d="M25.3-73.1c-3.9,0-7-4.4-7-9.7s3.1-9.7,7-9.7c3.9,0,7,4.4,7,9.7
								S29.2-73.1,25.3-73.1z"/>
						</g>
						<g>
							
								<linearGradient id="SVGID_9_" gradientUnits="userSpaceOnUse" x1="1502.6884" y1="24.2023" x2="1502.6884" y2="4.7555" gradientTransform="matrix(-1 0 0 -1 1562.8223 -68.3437)">
								<stop  offset="0" style="stop-color:#FFFFFF"/>
								<stop  offset="0.1057" style="stop-color:#FAFAFA"/>
								<stop  offset="0.2294" style="stop-color:#ECECEC"/>
								<stop  offset="0.3621" style="stop-color:#D4D4D4"/>
								<stop  offset="0.5012" style="stop-color:#B3B3B3"/>
								<stop  offset="0.6453" style="stop-color:#898989"/>
								<stop  offset="0.7935" style="stop-color:#555555"/>
								<stop  offset="0.9424" style="stop-color:#191919"/>
								<stop  offset="1" style="stop-color:#000000"/>
							</linearGradient>
							<path opacity="0.45" fill="url(#SVGID_9_)" d="M60.1-73.1c-3.9,0-7-4.4-7-9.7s3.1-9.7,7-9.7s7,4.4,7,9.7S64-73.1,60.1-73.1z"
								/>
						</g>
					</g>
					<g id="Eyes_13_">
						<g>
							<ellipse cx="60.1" cy="-82.8" rx="6.8" ry="9.6"/>
						</g>
						<g>
							<ellipse cx="25.3" cy="-82.8" rx="6.8" ry="9.6"/>
						</g>
					</g>
				</g>
			</g>
		</g>
	</g>
</g>
</svg>

